<?xml version="1.0" standalone="no"?>
<!DOCTYPE svg PUBLIC "-//W3C//DTD SVG 20010904//EN"
 "http://www.w3.org/TR/2001/REC-SVG-20010904/DTD/svg10.dtd">
<svg version="1.0" xmlns="http://www.w3.org/2000/svg"
 width="900.000000pt" height="580.000000pt" viewBox="0 0 900.000000 580.000000"
 preserveAspectRatio="xMidYMid meet">

<g transform="translate(0.000000,580.000000) scale(0.100000,-0.100000)"
fill="#000000" stroke="none">
<path d="M5140 4196 l0 -74 40 -6 c22 -3 58 -9 81 -12 51 -8 92 -41 92 -77 0
-14 -11 -48 -25 -74 -13 -26 -175 -405 -359 -840 -184 -436 -336 -793 -339
-793 -3 0 -46 92 -97 204 l-92 205 24 63 c13 35 94 254 180 488 132 363 159
429 185 451 37 31 82 46 172 55 l67 7 25 69 c14 38 26 71 26 74 0 2 -184 4
-409 4 l-408 0 -23 -62 c-13 -35 -25 -68 -27 -74 -3 -8 15 -15 48 -19 54 -8
99 -39 99 -70 0 -8 -32 -104 -71 -212 -39 -109 -78 -219 -87 -245 -9 -27 -18
-48 -21 -48 -3 0 -55 107 -115 238 -60 130 -143 306 -183 390 -41 84 -73 160
-71 170 4 22 45 42 86 42 l32 0 0 90 0 90 -395 0 -395 0 0 -89 0 -88 64 -5
c78 -7 165 -45 193 -84 17 -24 283 -585 538 -1132 l62 -133 -144 -387 c-109
-293 -150 -392 -169 -408 -49 -41 -200 -73 -345 -74 l-66 0 -26 -68 c-15 -37
-27 -71 -27 -75 0 -4 508 -7 1128 -7 l1128 0 154 328 c84 180 155 330 157 335
2 4 -33 7 -79 7 l-83 0 -40 -82 c-94 -194 -223 -346 -342 -404 l-58 -29 -557
-3 c-307 -1 -558 1 -558 5 0 4 32 95 72 201 l72 194 22 -44 c12 -24 42 -81 67
-128 l46 -85 145 -3 c169 -3 141 -24 221 167 29 69 182 430 340 801 158 371
318 747 355 835 88 208 103 237 142 270 43 36 80 51 161 65 l67 12 0 74 0 74
-340 0 -340 0 0 -74z"/>
</g>
</svg>
